<svg width="102" height="80" viewBox="0 0 102 80" fill="none" xmlns="http://www.w3.org/2000/svg">
<g clip-path="url(#clip0_330_130556)">
<path d="M39.9987 77.6663C60.8014 77.6663 77.6654 60.8024 77.6654 39.9997C77.6654 19.1969 60.8014 2.33301 39.9987 2.33301C19.196 2.33301 2.33203 19.1969 2.33203 39.9997C2.33203 60.8024 19.196 77.6663 39.9987 77.6663Z" stroke="black" stroke-width="5" stroke-miterlimit="10" stroke-linecap="round" stroke-linejoin="round"/>
<path d="M40.0007 49.6663C28.334 49.6663 18.334 56.3329 13.334 66.3329C20.0007 73.3329 29.6673 77.3329 40.0007 77.3329C50.334 77.3329 60.0006 72.9996 66.6673 66.3329C61.6673 56.6663 51.6673 49.6663 40.0007 49.6663Z" stroke="black" stroke-width="5" stroke-miterlimit="10" stroke-linecap="round" stroke-linejoin="round"/>
<path d="M39.9961 40.9993C46.6235 40.9993 51.9961 35.6267 51.9961 28.9993C51.9961 22.3719 46.6235 16.9993 39.9961 16.9993C33.3687 16.9993 27.9961 22.3719 27.9961 28.9993C27.9961 35.6267 33.3687 40.9993 39.9961 40.9993Z" stroke="black" stroke-width="5" stroke-miterlimit="10" stroke-linecap="round" stroke-linejoin="round"/>
</g>
<circle cx="83" cy="48" r="17" fill="black" stroke="white" stroke-width="4"/>
<g clip-path="url(#clip1_330_130556)">
<path d="M83.75 38C82.4907 38.0014 81.2833 38.5023 80.3928 39.3928C79.5023 40.2833 79.0014 41.4907 79 42.75C79 43.0649 79.1251 43.367 79.3478 43.5897C79.5705 43.8124 79.8726 43.9375 80.1875 43.9375C80.5024 43.9375 80.8045 43.8124 81.0272 43.5897C81.2499 43.367 81.375 43.0649 81.375 42.75C81.375 42.1201 81.6252 41.516 82.0706 41.0706C82.516 40.6252 83.1201 40.375 83.75 40.375C84.3799 40.375 84.984 40.6252 85.4294 41.0706C85.8748 41.516 86.125 42.1201 86.125 42.75C86.125 43.7798 85.5197 44.4118 84.5247 45.3303C83.6039 46.1779 82.5625 47.1382 82.5625 48.6875C82.5625 49.0024 82.6876 49.3045 82.9103 49.5272C83.133 49.7499 83.4351 49.875 83.75 49.875C84.0649 49.875 84.367 49.7499 84.5897 49.5272C84.8124 49.3045 84.9375 49.0024 84.9375 48.6875C84.9375 48.2039 85.3921 47.7598 86.1343 47.0756C87.1316 46.1548 88.5 44.8942 88.5 42.75C88.4986 41.4907 87.9977 40.2833 87.1072 39.3928C86.2167 38.5023 85.0093 38.0014 83.75 38Z" fill="white"/>
<path d="M83.75 52.25C83.2803 52.25 82.8211 52.3893 82.4305 52.6503C82.04 52.9112 81.7355 53.2822 81.5558 53.7161C81.376 54.1501 81.329 54.6276 81.4206 55.0883C81.5123 55.549 81.7385 55.9722 82.0706 56.3044C82.4028 56.6365 82.826 56.8627 83.2867 56.9544C83.7474 57.046 84.2249 56.999 84.6589 56.8192C85.0928 56.6395 85.4638 56.335 85.7247 55.9445C85.9857 55.5539 86.125 55.0947 86.125 54.625C86.1244 53.9953 85.874 53.3916 85.4287 52.9463C84.9834 52.501 84.3797 52.2506 83.75 52.25Z" fill="white"/>
</g>
<defs>
<clipPath id="clip0_330_130556">
<rect width="80" height="80" fill="white"/>
</clipPath>
<clipPath id="clip1_330_130556">
<rect width="19" height="19" fill="white" transform="translate(74 38)"/>
</clipPath>
</defs>
</svg>
