<svg width="30" height="30" viewBox="0 0 30 30" fill="none" xmlns="http://www.w3.org/2000/svg">
<circle cx="15" cy="15" r="15" fill="#ACACAC"/>
<path d="M14.3045 8.05229C15.0973 7.9298 15.9097 8.02339 16.6528 8.32366C17.3961 8.62399 18.0431 9.12035 18.5202 9.76097C18.9975 10.4018 19.2856 11.1615 19.3497 11.9562C19.4138 12.7509 19.2512 13.5464 18.8815 14.254C18.5121 14.9614 17.9511 15.552 17.2636 15.963C17.0813 16.0719 16.8832 16.1741 16.7237 16.2564C16.6779 16.2801 16.6353 16.3021 16.5971 16.3221C16.4019 16.4247 16.2751 16.4997 16.1812 16.5735C16.0964 16.64 16.0599 16.6895 16.0389 16.7307C16.0187 16.7706 15.986 16.8558 15.986 17.0318V18.2853C15.986 18.6167 15.7173 18.8853 15.386 18.8853H14.586C14.2546 18.8853 13.986 18.6167 13.986 18.2853V17.0318C13.986 16.59 14.0723 16.1861 14.2559 15.8247C14.4389 15.4645 14.6912 15.2005 14.9461 15.0004C15.1917 14.8075 15.4552 14.6628 15.667 14.5516C15.7323 14.5173 15.7921 14.4864 15.8479 14.4576C15.9935 14.3824 16.1135 14.3203 16.2373 14.2463C16.6121 14.0223 16.9127 13.7036 17.1088 13.3281C17.3048 12.9528 17.3898 12.5339 17.3562 12.117C17.3225 11.7 17.1712 11.298 16.9162 10.9556C16.661 10.613 16.3113 10.3428 15.9035 10.178C15.4956 10.0132 15.0476 9.96121 14.6099 10.0288C14.1722 10.0965 13.7648 10.2805 13.432 10.5578C13.2575 10.7031 13.1073 10.871 12.9846 11.0554C12.8011 11.3313 12.467 11.508 12.1526 11.4033L11.3936 11.1505C11.0792 11.0457 10.9056 10.7034 11.0535 10.4069C11.3181 9.87648 11.6918 9.40449 12.1518 9.0212C12.7664 8.50913 13.5116 8.1748 14.3045 8.05229Z" fill="black"/>
<path d="M14.1641 21.052C14.1641 20.7759 14.388 20.552 14.6641 20.552H15.3117C15.5878 20.552 15.8117 20.7759 15.8117 21.052V21.6996C15.8117 21.9757 15.5878 22.1996 15.3117 22.1996H14.6641C14.388 22.1996 14.1641 21.9757 14.1641 21.6996V21.052Z" fill="black"/>
</svg>
