<svg width="13" height="10" viewBox="0 0 13 10" fill="none" xmlns="http://www.w3.org/2000/svg">
<path d="M4.8466 5.16146C5.96124 5.16146 6.86483 4.25787 6.86483 3.14323C6.86483 2.02859 5.96124 1.125 4.8466 1.125C3.73196 1.125 2.82837 2.02859 2.82837 3.14323C2.82837 4.25787 3.73196 5.16146 4.8466 5.16146Z" fill="#4ADE80" stroke="#16A34A" stroke-width="0.96875" stroke-linecap="round" stroke-linejoin="round"/>
<path d="M8.42984 7.48221C9.29518 8.06013 8.75246 9.19774 7.71188 9.19774H1.98144C0.940854 9.19774 0.398133 8.06013 1.26348 7.48221C2.28884 6.79743 3.52112 6.39819 4.84666 6.39819C6.17219 6.39819 7.40448 6.79743 8.42984 7.48221Z" fill="#4ADE80" stroke="#16A34A" stroke-width="0.96875"/>
<path d="M8.3125 4.43485L9.48674 5.64579C10.0393 4.05854 10.4995 3.36204 11.5417 2.41663" stroke="#16A34A" stroke-width="0.96875" stroke-linecap="round" stroke-linejoin="round"/>
</svg>
