<svg width="20" height="21" viewBox="0 0 20 21" fill="none" xmlns="http://www.w3.org/2000/svg">
<path d="M10 4.95477H18.3333" stroke="#718096" stroke-width="1.5" stroke-miterlimit="10" stroke-linecap="round" stroke-linejoin="round"/>
<path d="M11.85 1.9881H16.4833C17.9667 1.9881 18.3333 2.35477 18.3333 3.82143V7.24643C18.3333 8.7131 17.9667 9.07976 16.4833 9.07976H11.85C10.3667 9.07976 10 8.7131 10 7.24643V3.82143C10 2.35477 10.3667 1.9881 11.85 1.9881Z" stroke="#718096" stroke-width="1.5" stroke-linecap="round" stroke-linejoin="round"/>
<path d="M1.66675 14.5381H10.0001" stroke="#718096" stroke-width="1.5" stroke-miterlimit="10" stroke-linecap="round" stroke-linejoin="round"/>
<path d="M3.51675 11.5714H8.15008C9.63341 11.5714 10.0001 11.9381 10.0001 13.4047V16.8297C10.0001 18.2964 9.63341 18.6631 8.15008 18.6631H3.51675C2.03342 18.6631 1.66675 18.2964 1.66675 16.8297V13.4047C1.66675 11.9381 2.03342 11.5714 3.51675 11.5714Z" stroke="#718096" stroke-width="1.5" stroke-linecap="round" stroke-linejoin="round"/>
<path d="M18.3333 12.8214C18.3333 16.0464 15.725 18.6547 12.5 18.6547L13.375 17.1964" stroke="#718096" stroke-width="1.5" stroke-linecap="round" stroke-linejoin="round"/>
<path d="M1.66675 7.82143C1.66675 4.59643 4.27508 1.9881 7.50008 1.9881L6.62509 3.44643" stroke="#718096" stroke-width="1.5" stroke-linecap="round" stroke-linejoin="round"/>
</svg>
