<svg width="16" height="16" viewBox="0 0 16 16" fill="none" xmlns="http://www.w3.org/2000/svg">
<path fill-rule="evenodd" clip-rule="evenodd" d="M12.5302 0C12.7791 0 13.0001 0.159282 13.0788 0.395429L13.7102 2.28976L15.6046 2.9212C15.8407 2.99991 16 3.22091 16 3.46983C16 3.71875 15.8407 3.93974 15.6046 4.01845L13.7102 4.6499L13.0788 6.54422C13.0001 6.78037 12.7791 6.93965 12.5302 6.93965C12.2813 6.93965 12.0603 6.78037 11.9815 6.54422L11.3501 4.6499L9.45578 4.01845C9.21963 3.93974 9.06035 3.71875 9.06035 3.46983C9.06035 3.22091 9.21963 2.99991 9.45578 2.9212L11.3501 2.28976L11.9815 0.395429C12.0603 0.159282 12.2813 0 12.5302 0Z" fill="#FF4747"/>
<path fill-rule="evenodd" clip-rule="evenodd" d="M12.5302 8.28903C13.0625 8.28903 13.494 8.72056 13.494 9.25287V14.0721C13.494 14.6044 13.0625 15.0359 12.5302 15.0359C11.9979 15.0359 11.5663 14.6044 11.5663 14.0721V9.25287C11.5663 8.72056 11.9979 8.28903 12.5302 8.28903Z" fill="#FF4747"/>
<path fill-rule="evenodd" clip-rule="evenodd" d="M3.03524 3.20751C3.15262 2.7925 3.53141 2.50599 3.9627 2.50599H5.67619C6.10748 2.50599 6.48628 2.79251 6.60365 3.20752L9.60217 13.8098C9.74704 14.322 9.44923 14.8547 8.93701 14.9995C8.42479 15.1444 7.89211 14.8466 7.74724 14.3344L4.94714 4.43367H4.69175L1.89155 14.3344C1.74668 14.8466 1.214 15.1444 0.701776 14.9995C0.189554 14.8547 -0.108243 14.322 0.0366278 13.8098L3.03524 3.20751Z" fill="#FF4747"/>
<path fill-rule="evenodd" clip-rule="evenodd" d="M0.964087 11.1806C0.964087 10.6482 1.39561 10.2167 1.92793 10.2167H7.71097C8.24329 10.2167 8.67481 10.6482 8.67481 11.1806C8.67481 11.7129 8.24329 12.1444 7.71097 12.1444H1.92793C1.39561 12.1444 0.964087 11.7129 0.964087 11.1806Z" fill="#FF4747"/>
</svg>
