<svg width="21" height="23" viewBox="0 0 21 23" fill="none" xmlns="http://www.w3.org/2000/svg">
<path d="M19.6244 8.00391C19.5153 8.06519 16.9172 9.35841 16.9172 12.2258C17.0397 15.4959 20.1959 16.6427 20.25 16.6427C20.1959 16.7039 19.7735 18.2049 18.5224 19.7783C17.5295 21.1336 16.4275 22.5 14.754 22.5C13.1621 22.5 12.5907 21.5967 10.754 21.5967C8.78147 21.5967 8.22335 22.5 6.71314 22.5C5.03967 22.5 3.85599 21.0603 2.80896 19.7178C1.44871 17.9606 0.29254 15.203 0.251723 12.5553C0.224217 11.1522 0.524128 9.77304 1.28544 8.60158C2.35998 6.96614 4.27835 5.85595 6.3733 5.81935C7.97845 5.7708 9.40703 6.80777 10.3866 6.80777C11.3254 6.80777 13.0805 5.81935 15.0663 5.81935C15.9235 5.82014 18.2092 6.05173 19.6244 8.00391ZM10.2509 5.53921C9.96515 4.25792 10.754 2.97663 11.4887 2.15931C12.4274 1.17089 13.9101 0.5 15.1888 0.5C15.2704 1.78129 14.7531 3.03791 13.8285 3.95312C12.9989 4.94154 11.5703 5.68565 10.2509 5.53921Z" fill="#1A202C"/>
</svg>
