<svg width="15" height="14" viewBox="0 0 15 14" fill="none" xmlns="http://www.w3.org/2000/svg">
<path d="M1.59183 10.525C1.75317 11.9644 2.92311 13.1072 4.36983 13.1769C5.36978 13.225 6.39127 13.2501 7.49991 13.2501C8.60855 13.2501 9.63003 13.225 10.63 13.1769C12.0767 13.1072 13.2466 11.9644 13.408 10.525C13.5166 9.55566 13.6058 8.56188 13.6058 7.54953C13.6058 6.53719 13.5166 5.54341 13.408 4.5741C13.2466 3.13471 12.0767 1.99187 10.63 1.92219C9.63003 1.87403 8.60855 1.849 7.49991 1.849C6.39127 1.849 5.36978 1.87403 4.36983 1.92219C2.92311 1.99187 1.75317 3.13471 1.59183 4.5741C1.48318 5.54341 1.39404 6.53719 1.39404 7.54953C1.39404 8.56188 1.48318 9.55566 1.59183 10.525Z" fill="white"/>
<path d="M5.25342 0.75L5.25342 3.28918" stroke="#1A202C" stroke-width="1.5" stroke-linecap="round"/>
<path d="M9.73975 0.75L9.73975 3.28918" stroke="#1A202C" stroke-width="1.5" stroke-linecap="round"/>
<path d="M13.1682 6.60474L1.83177 6.60474L1.9909 2.56996L7.43316 2.17524L13.1682 2.56996L13.1682 6.60474Z" fill="#BFE2FD"/>
<path d="M1.59183 10.525C1.75317 11.9644 2.92311 13.1072 4.36983 13.1769C5.36978 13.225 6.39127 13.2501 7.49991 13.2501C8.60855 13.2501 9.63003 13.225 10.63 13.1769C12.0767 13.1072 13.2466 11.9644 13.408 10.525C13.5166 9.55566 13.6058 8.56188 13.6058 7.54953C13.6058 6.53719 13.5166 5.54341 13.408 4.5741C13.2466 3.13471 12.0767 1.99187 10.63 1.92219C9.63003 1.87403 8.60855 1.849 7.49991 1.849C6.39127 1.849 5.36978 1.87403 4.36983 1.92219C2.92311 1.99187 1.75317 3.13471 1.59183 4.5741C1.48318 5.54341 1.39404 6.53719 1.39404 7.54953C1.39404 8.56188 1.48318 9.55566 1.59183 10.525Z" stroke="#1A202C" stroke-width="1.5"/>
<path d="M1.68628 6.22461H13.3738" stroke="#1A202C" stroke-width="1.5"/>
</svg>
