<svg width="18" height="18" viewBox="0 0 18 18" fill="none" xmlns="http://www.w3.org/2000/svg">
<path d="M16.4385 10.9411C16.5858 10.8645 16.7125 10.7535 16.8078 10.6176C17.4707 9.67263 14.7717 7.38123 14.5799 6.00404C14.0612 2.27923 11.1365 0.964355 7.88081 0.964355C3.49317 0.964355 0.964233 3.21436 0.964233 7.71436C0.964233 10.9787 1.86848 11.9408 2.91858 13.6888C3.32455 14.3645 3.49918 15.1478 3.49705 15.9361C3.49514 16.6428 3.49317 17.4934 3.49317 17.991H11.2313V15.7497C11.302 15.1771 11.8129 14.7918 12.3898 14.7918H13.4527C14.2811 14.7918 14.9527 14.1203 14.9527 13.2918V11.0832L15.9616 11.0578C16.1276 11.0578 16.2912 11.0177 16.4385 10.9411Z" fill="#F2F6FF"/>
<path d="M3.49317 17.0357C3.49317 16.6925 3.49411 16.3025 3.49531 15.9425C3.49797 15.1503 3.32363 14.3626 2.91547 13.6836C1.86669 11.9389 0.964233 10.9755 0.964233 7.71438C0.964233 4.8581 1.98309 2.90831 3.84941 1.86499" stroke="#5D6A83" stroke-width="1.5" stroke-linecap="round" stroke-linejoin="round"/>
<path d="M8.35974 6.43366V0.964355" stroke="#5D6A83" stroke-width="1.5" stroke-linecap="round" stroke-linejoin="round"/>
<path d="M8.35976 11.5713C10.0055 11.5713 10.9312 10.6456 10.9312 8.9999C10.9312 7.35418 10.0055 6.42847 8.35976 6.42847C6.71404 6.42847 5.78833 7.35418 5.78833 8.9999C5.78833 10.6456 6.71404 11.5713 8.35976 11.5713Z" fill="white"/>
<path d="M8.35976 11.5713C10.0055 11.5713 10.9312 10.6456 10.9312 8.9999C10.9312 7.35418 10.0055 6.42847 8.35976 6.42847C6.71404 6.42847 5.78833 7.35418 5.78833 8.9999C5.78833 10.6456 6.71404 11.5713 8.35976 11.5713Z" stroke="#5D6A83" stroke-width="1.5" stroke-linecap="round" stroke-linejoin="round"/>
<path d="M9 11.5261C10.2857 12.8118 12.8571 14.1428 16.0714 14.1428" stroke="#5D6A83" stroke-width="1.5" stroke-linecap="round"/>
<path d="M14.9527 11.0832L15.9616 11.0579C16.1276 11.0578 16.2912 11.0177 16.4385 10.9411C16.5858 10.8645 16.7125 10.7535 16.8078 10.6176C17.4707 9.67265 14.7717 7.38124 14.5799 6.00406C14.278 3.83629 13.1612 2.48477 11.6385 1.73364" stroke="#5D6A83" stroke-width="1.5" stroke-linecap="round" stroke-linejoin="round"/>
<path d="M11.2313 17.0357C11.2313 16.7144 11.2313 16.7144 11.2313 16.3926" stroke="#5D6A83" stroke-width="1.5" stroke-linecap="round" stroke-linejoin="round"/>
</svg>
