<svg width="14" height="14" viewBox="0 0 14 14" fill="none" xmlns="http://www.w3.org/2000/svg">
<path d="M5.61116 7.19449C6.95352 7.19449 8.04171 6.10629 8.04171 4.76393C8.04171 3.42157 6.95352 2.33337 5.61116 2.33337C4.2688 2.33337 3.1806 3.42157 3.1806 4.76393C3.1806 6.10629 4.2688 7.19449 5.61116 7.19449Z" fill="white" stroke="#718096" stroke-width="1.5" stroke-linecap="round" stroke-linejoin="round"/>
<path d="M9.92635 9.98944C10.9685 10.6854 10.3149 12.0555 9.06171 12.0555H2.16053C0.907356 12.0555 0.253756 10.6854 1.29589 9.98944C2.53073 9.16476 4.01478 8.68396 5.61112 8.68396C7.20746 8.68396 8.69151 9.16476 9.92635 9.98944Z" fill="white" stroke="#718096" stroke-width="1.5"/>
<path d="M10.2916 4.06946L13.0415 6.81932" stroke="#718096" stroke-width="1.5" stroke-linecap="round"/>
<path d="M13.0415 4.06946L10.2916 6.81932" stroke="#718096" stroke-width="1.5" stroke-linecap="round"/>
</svg>
