<svg width="14" height="14" viewBox="0 0 14 14" fill="none" xmlns="http://www.w3.org/2000/svg">
<path d="M0.75 3.74524H13.25" stroke="#FF3C38" stroke-width="1.5" stroke-linecap="round"/>
<path d="M11.4907 3.74524H2.50509L2.44079 4.90789C2.31758 7.13548 2.42227 9.36983 2.75321 11.5762C2.89753 12.5383 3.72402 13.25 4.6969 13.25H9.29891C10.2718 13.25 11.0983 12.5383 11.2426 11.5762C11.5735 9.36984 11.6782 7.13548 11.555 4.90789L11.4907 3.74524Z" fill="#F2F6FF"/>
<path d="M11.4907 3.74524H2.50509L2.44079 4.90789C2.31758 7.13548 2.42227 9.36983 2.75321 11.5762C2.89753 12.5383 3.72402 13.25 4.6969 13.25H9.29891C10.2718 13.25 11.0983 12.5383 11.2426 11.5762C11.5735 9.36984 11.6782 7.13548 11.555 4.90789L11.4907 3.74524Z" stroke="#FF3C38" stroke-width="1.5" stroke-linecap="round" stroke-linejoin="round"/>
<path d="M4.50183 3.74521V3.24601C4.50183 2.58402 4.7648 1.94916 5.23289 1.48106C5.70099 1.01297 6.33586 0.75 6.99784 0.75C7.65982 0.75 8.29469 1.01297 8.76278 1.48106C9.23087 1.94916 9.49384 2.58402 9.49384 3.24601V3.74521" stroke="#FF3C38" stroke-width="1.5" stroke-linecap="round" stroke-linejoin="round"/>
<path d="M5.50024 6.4187V10.5566" stroke="#FF3C38" stroke-width="1.5" stroke-linecap="round" stroke-linejoin="round"/>
<path d="M8.49548 6.4187V10.5566" stroke="#FF3C38" stroke-width="1.5" stroke-linecap="round" stroke-linejoin="round"/>
</svg>
