<svg width="20" height="20" viewBox="0 0 20 20" fill="none" xmlns="http://www.w3.org/2000/svg">
<path d="M10.8333 10.0002C10.8333 9.53993 10.4602 9.16683 9.99996 9.16683C9.53972 9.16683 9.16663 9.53993 9.16663 10.0002C9.16663 10.4604 9.53972 10.8335 9.99996 10.8335C10.4602 10.8335 10.8333 10.4604 10.8333 10.0002Z" stroke="#718096" stroke-width="2" stroke-linecap="round" stroke-linejoin="round"/>
<path d="M16.6667 10.0002C16.6667 9.53993 16.2936 9.16683 15.8333 9.16683C15.3731 9.16683 15 9.53993 15 10.0002C15 10.4604 15.3731 10.8335 15.8333 10.8335C16.2936 10.8335 16.6667 10.4604 16.6667 10.0002Z" stroke="#718096" stroke-width="2" stroke-linecap="round" stroke-linejoin="round"/>
<path d="M4.99998 10.0002C4.99998 9.53993 4.62688 9.16683 4.16665 9.16683C3.70641 9.16683 3.33331 9.53993 3.33331 10.0002C3.33331 10.4604 3.70641 10.8335 4.16665 10.8335C4.62688 10.8335 4.99998 10.4604 4.99998 10.0002Z" stroke="#718096" stroke-width="2" stroke-linecap="round" stroke-linejoin="round"/>
</svg>
