<svg width="12" height="12" viewBox="0 0 24 23" fill="none" xmlns="http://www.w3.org/2000/svg">
<path d="M23.9932 3.65446C23.9324 2.73299 23.5262 1.86386 22.8498 1.20783L22.6863 1.05113C21.9809 0.373191 21.0536 0 20.0759 0C19.1516 0 18.2894 0.338969 17.6478 0.95531L2.60242 15.4082C1.44105 16.5234 0.248547 21.055 0.0212963 21.952C-0.0405788 22.1969 0.0344212 22.4545 0.219671 22.6324L0.382797 22.7888C0.47169 22.8745 0.581692 22.9372 0.702585 22.9712C0.823478 23.0051 0.951341 23.0092 1.0743 22.9829C2.02717 22.7816 6.83918 21.72 8.00581 20.5993L23.0527 6.14684C23.7187 5.50708 24.0528 4.62202 23.9932 3.65446ZM17.2154 5.36984C17.2502 5.40341 17.2915 5.43004 17.337 5.44822C17.3825 5.4664 17.4313 5.47576 17.4806 5.47576C17.5298 5.47576 17.5786 5.4664 17.6241 5.44822C17.6696 5.43004 17.7109 5.40341 17.7457 5.36984L18.8767 4.28341L19.5877 4.96603L6.46755 17.5691L5.75693 16.8865L16.6604 6.41304C16.6953 6.3796 16.7229 6.33989 16.7417 6.2962C16.7606 6.2525 16.7703 6.20566 16.7703 6.15837C16.7703 6.11107 16.7606 6.06423 16.7417 6.02054C16.7229 5.97684 16.6953 5.93713 16.6604 5.90369C16.6256 5.87024 16.5843 5.84371 16.5388 5.82561C16.4933 5.80751 16.4446 5.7982 16.3953 5.7982C16.3461 5.7982 16.2973 5.80751 16.2518 5.82561C16.2063 5.84371 16.165 5.87024 16.1302 5.90369L5.22668 16.3772L4.47068 15.6506L17.5904 3.0482L18.3464 3.77405L17.2154 4.86048C17.1451 4.92804 17.1056 5.01964 17.1056 5.11516C17.1056 5.21068 17.1451 5.30229 17.2154 5.36984ZM7.75306 18.804L6.99743 18.0781L20.1176 5.47538L20.8736 6.20123L7.75306 18.804ZM2.35492 19.3202L3.88755 20.7928C3.17301 20.9974 2.45342 21.1853 1.72942 21.3565C1.92096 20.673 2.12952 19.9941 2.35492 19.3202ZM4.69493 20.5496L2.62155 18.5576C2.99317 17.5414 3.3693 16.7086 3.66293 16.4269L3.94043 16.1603L4.96118 17.1408L4.96155 17.1416L4.9623 17.1419L7.2228 19.3137L6.9453 19.5803C6.65318 19.8609 5.7723 20.2099 4.69493 20.5496ZM21.9918 5.12741L21.4038 5.69224L19.1426 3.5201L19.1422 3.51974L19.1414 3.51937L18.1211 2.53921L18.7091 1.97438C19.0672 1.63037 19.5528 1.44125 20.0763 1.44125C20.6534 1.44125 21.2039 1.66459 21.6262 2.0702L21.7893 2.2269C22.2077 2.63234 22.4588 3.16974 22.4962 3.73947C22.5296 4.28953 22.3507 4.78268 21.9918 5.12741Z" fill="black"/>
</svg>
