<svg width="14" height="15" viewBox="0 0 14 15" fill="none" xmlns="http://www.w3.org/2000/svg">
<path d="M1.00248 11.6482C1.10971 12.6081 1.87707 13.3751 2.83658 13.4861C3.9208 13.6115 5.04115 13.7352 6.18744 13.7352C7.33373 13.7352 8.45407 13.6115 9.53829 13.4861C10.4978 13.3751 11.2652 12.6081 11.3724 11.6482C11.4929 10.5691 11.6093 9.45414 11.6093 8.31341C11.6093 7.17269 11.4929 6.05774 11.3724 4.97866C11.2652 4.01872 10.4978 3.25173 9.53829 3.14074C8.45407 3.01532 7.33373 2.8916 6.18744 2.8916C5.04115 2.8916 3.9208 3.01532 2.83658 3.14074C1.87707 3.25173 1.10971 4.01872 1.00248 4.97866C0.88194 6.05774 0.765625 7.17269 0.765625 8.31341C0.765625 9.45414 0.88194 10.5691 1.00248 11.6482Z" fill="white"/>
<path d="M5.38994 2.91016C4.52064 2.94931 3.66799 3.04449 2.83659 3.14066C1.87707 3.25165 1.10971 4.01864 1.00248 4.97858C0.88194 6.05766 0.765625 7.17261 0.765625 8.31333C0.765625 9.45406 0.88194 10.569 1.00248 11.6481C1.10971 12.608 1.87707 13.375 2.83658 13.486C3.9208 13.6114 5.04115 13.7352 6.18744 13.7352C7.33373 13.7352 8.45407 13.6114 9.53829 13.486C10.4978 13.375 11.2652 12.6081 11.3724 11.6481C11.4591 10.8719 11.5436 10.0771 11.5842 9.26752" stroke="#358FF7" stroke-width="1.5" stroke-linecap="round"/>
<path d="M10.1087 1.80268L6.42384 5.98384L5.91901 8.35816C5.83778 8.7402 6.23602 9.10169 6.60895 8.98445L8.97176 8.24164L12.7779 4.23673C13.41 3.57156 13.2997 2.45902 12.5345 1.78221C11.7873 1.12125 10.7012 1.13042 10.1087 1.80268Z" fill="#BFE2FD"/>
<path d="M10.1087 1.80268L6.42384 5.98384L5.91901 8.35816C5.83778 8.7402 6.23602 9.10169 6.60895 8.98445L8.97176 8.24164L12.7779 4.23673C13.41 3.57156 13.2997 2.45902 12.5345 1.78221C11.7873 1.12125 10.7012 1.13042 10.1087 1.80268Z" stroke="#358FF7" stroke-width="1.5" stroke-linecap="round" stroke-linejoin="round"/>
</svg>
