<svg width="23" height="23" viewBox="0 0 23 23" fill="none" xmlns="http://www.w3.org/2000/svg">
<path d="M20.8761 11.7137C20.8761 10.9224 20.8105 10.3449 20.6687 9.74597H11.4475V13.3179H16.8602C16.7511 14.2055 16.1618 15.5424 14.8522 16.4406L14.8339 16.5602L17.7495 18.7737L17.9515 18.7935C19.8066 17.1144 20.8761 14.644 20.8761 11.7137Z" fill="#4285F4"/>
<path d="M11.4469 21.125C14.0986 21.125 16.3248 20.2694 17.9508 18.7936L14.8516 16.4408C14.0223 17.0076 12.9092 17.4033 11.4469 17.4033C8.8497 17.4033 6.64536 15.7243 5.85957 13.4036L5.7444 13.4131L2.71274 15.7125L2.6731 15.8205C4.28815 18.9647 7.60561 21.125 11.4469 21.125Z" fill="#34A853"/>
<path d="M5.86006 13.4036C5.65272 12.8047 5.53273 12.163 5.53273 11.5C5.53273 10.8369 5.65272 10.1952 5.84915 9.59636L5.84366 9.46881L2.774 7.13257L2.67357 7.17938C2.00792 8.48412 1.62598 9.94929 1.62598 11.5C1.62598 13.0507 2.00792 14.5158 2.67357 15.8205L5.86006 13.4036Z" fill="#FBBC05"/>
<path d="M11.4469 5.59664C13.2912 5.59664 14.5352 6.37733 15.2445 7.02974L18.0164 4.3775C16.314 2.82681 14.0987 1.875 11.4469 1.875C7.60564 1.875 4.28816 4.03526 2.6731 7.1794L5.84868 9.59638C6.64538 7.27569 8.84974 5.59664 11.4469 5.59664Z" fill="#EB4335"/>
</svg>
