<svg width="28" height="28" viewBox="0 0 28 28" fill="none" xmlns="http://www.w3.org/2000/svg">
<path d="M5.99991 14.0002L2.67548 12.0809C2.01943 11.7021 1.67005 10.986 1.93771 10.2773C2.16287 9.6811 2.54083 8.84795 3.17459 7.75023C3.80836 6.65252 4.34091 5.90863 4.74464 5.41553C5.22455 4.82939 6.01943 4.7739 6.67548 5.15267L10 7.0721V3.23308C10 2.47553 10.4455 1.81489 11.1931 1.69235C11.822 1.58926 12.7325 1.5 14 1.5C15.2676 1.5 16.1781 1.58926 16.807 1.69235C17.5545 1.81489 18 2.47553 18 3.23308V7.07196L21.3243 5.15267C21.9804 4.7739 22.7753 4.82939 23.2552 5.41553C23.6589 5.90863 24.1915 6.65252 24.8252 7.75023C25.459 8.84795 25.8369 9.6811 26.0621 10.2773C26.3298 10.986 25.9804 11.7021 25.3243 12.0809L21.9999 14.0002L25.3243 15.9196C25.9804 16.2984 26.3298 17.0145 26.0621 17.7232C25.8369 18.3194 25.459 19.1525 24.8252 20.2502C24.1915 21.348 23.6589 22.0918 23.2552 22.5849C22.7753 23.1711 21.9804 23.2266 21.3243 22.8478L18 20.9285V24.7669C18 25.5245 17.5545 26.1851 16.807 26.3077C16.1781 26.4107 15.2676 26.5 14 26.5C12.7325 26.5 11.822 26.4107 11.1931 26.3077C10.4455 26.1851 10 25.5245 10 24.7669V20.9284L6.67548 22.8478C6.01943 23.2266 5.22455 23.1711 4.74464 22.5849C4.34091 22.0918 3.80836 21.348 3.17459 20.2502C2.54082 19.1525 2.16287 18.3194 1.9377 17.7232C1.67005 17.0145 2.01943 16.2984 2.67548 15.9196L5.99991 14.0002Z" fill="white" stroke="#358FF7" stroke-width="3" stroke-linejoin="round"/>
</svg>
