<svg width="28" height="28" viewBox="0 0 28 28" fill="none" xmlns="http://www.w3.org/2000/svg">
<path d="M14 6.36629C7.96056 -1.04399 1.5839 4.22133 1.5 9.89724C1.5 18.3471 11.6101 25.2827 14 25.2827C16.3898 25.2827 26.5 18.3471 26.5 9.89724C26.4161 4.22133 20.0394 -1.04399 14 6.36629Z" fill="#BFE2FD"/>
<path d="M1.76172 7.99976C3.02588 3.18991 8.6455 -0.203904 14.0001 6.36605C20.0395 -1.04424 26.4162 4.22109 26.5001 9.89699C26.5001 18.3468 16.3899 25.2824 14.0001 25.2824C12.5707 25.2824 8.37994 22.8016 5.24206 18.9998" stroke="#358FF7" stroke-width="3" stroke-linecap="round" stroke-linejoin="round"/>
<path d="M19 13H16L13 17L9 10L6 14H1.5" stroke="#358FF7" stroke-width="3" stroke-linecap="round" stroke-linejoin="round"/>
</svg>
