<svg width="22" height="23" viewBox="0 0 22 23" fill="none" xmlns="http://www.w3.org/2000/svg">
<path d="M11 1.69641C5.68477 1.69641 1.375 6.00618 1.375 11.3214C1.375 16.6366 5.68477 20.9464 11 20.9464C16.3152 20.9464 20.625 16.6366 20.625 11.3214C20.625 6.00618 16.3152 1.69641 11 1.69641ZM11 19.3136C6.58711 19.3136 3.00781 15.7343 3.00781 11.3214C3.00781 6.90852 6.58711 3.32922 11 3.32922C15.4129 3.32922 18.9922 6.90852 18.9922 11.3214C18.9922 15.7343 15.4129 19.3136 11 19.3136Z" fill="#718096"/>
<path d="M13.3977 7.12551C12.7531 6.56047 11.9023 6.2511 11 6.2511C10.0977 6.2511 9.24687 6.56262 8.60234 7.12551C7.93203 7.71204 7.5625 8.50051 7.5625 9.34485V9.50813C7.5625 9.60266 7.63984 9.68001 7.73437 9.68001H8.76562C8.86016 9.68001 8.9375 9.60266 8.9375 9.50813V9.34485C8.9375 8.39739 9.86348 7.6261 11 7.6261C12.1365 7.6261 13.0625 8.39739 13.0625 9.34485C13.0625 10.013 12.5898 10.6253 11.8572 10.9068C11.4018 11.0808 11.015 11.3859 10.7379 11.7855C10.4564 12.1937 10.3104 12.6835 10.3104 13.1798V13.6417C10.3104 13.7363 10.3877 13.8136 10.4822 13.8136H11.5135C11.608 13.8136 11.6854 13.7363 11.6854 13.6417V13.154C11.6865 12.9455 11.7504 12.7421 11.8688 12.5704C11.9872 12.3987 12.1547 12.2667 12.3492 12.1915C13.6168 11.7038 14.4354 10.5866 14.4354 9.34485C14.4375 8.50051 14.068 7.71204 13.3977 7.12551ZM10.1406 16.048C10.1406 16.2759 10.2312 16.4945 10.3923 16.6556C10.5535 16.8168 10.7721 16.9073 11 16.9073C11.2279 16.9073 11.4465 16.8168 11.6077 16.6556C11.7688 16.4945 11.8594 16.2759 11.8594 16.048C11.8594 15.8201 11.7688 15.6015 11.6077 15.4403C11.4465 15.2791 11.2279 15.1886 11 15.1886C10.7721 15.1886 10.5535 15.2791 10.3923 15.4403C10.2312 15.6015 10.1406 15.8201 10.1406 16.048Z" fill="#718096"/>
</svg>
