<svg width="18" height="17" viewBox="0 0 18 17" fill="none" xmlns="http://www.w3.org/2000/svg">
<path d="M15.4167 0.988037H2.58333C1.57081 0.988037 0.75 1.80885 0.75 2.82137C0.75 3.83389 1.57081 4.6547 2.58333 4.6547H15.4167C16.4292 4.6547 17.25 3.83389 17.25 2.82137C17.25 1.80885 16.4292 0.988037 15.4167 0.988037Z" stroke="#718096" stroke-width="1.5" stroke-linecap="round" stroke-linejoin="round"/>
<path d="M2.58325 4.65466V13.8213C2.58325 14.3076 2.77641 14.7739 3.12022 15.1177C3.46404 15.4615 3.93035 15.6547 4.41659 15.6547H13.5833C14.0695 15.6547 14.5358 15.4615 14.8796 15.1177C15.2234 14.7739 15.4166 14.3076 15.4166 13.8213V4.65466" stroke="#718096" stroke-width="1.5" stroke-linecap="round" stroke-linejoin="round"/>
<path d="M7.16675 8.32141H10.8334" stroke="#718096" stroke-width="1.5" stroke-linecap="round" stroke-linejoin="round"/>
</svg>
