<svg width="20" height="21" viewBox="0 0 20 21" fill="none" xmlns="http://www.w3.org/2000/svg">
<path d="M14.8251 19.2797H5.17508C2.89175 19.2797 1.04175 17.4214 1.04175 15.1381V8.96308C1.04175 7.82974 1.74175 6.40474 2.64175 5.70474L7.13342 2.20474C8.48342 1.15474 10.6417 1.10474 12.0417 2.08808L17.1917 5.69641C18.1834 6.38808 18.9584 7.87141 18.9584 9.07974V15.1464C18.9584 17.4214 17.1084 19.2797 14.8251 19.2797ZM7.90008 3.18808L3.40841 6.68808C2.81675 7.15474 2.29175 8.21308 2.29175 8.96308V15.1381C2.29175 16.7297 3.58341 18.0297 5.17508 18.0297H14.8251C16.4167 18.0297 17.7084 16.7381 17.7084 15.1464V9.07974C17.7084 8.27974 17.1334 7.17141 16.4751 6.72141L11.3251 3.11308C10.3751 2.44641 8.80841 2.47974 7.90008 3.18808Z" fill="#718096"/>
<path d="M10 15.9464C9.65833 15.9464 9.375 15.6631 9.375 15.3214V12.8214C9.375 12.4797 9.65833 12.1964 10 12.1964C10.3417 12.1964 10.625 12.4797 10.625 12.8214V15.3214C10.625 15.6631 10.3417 15.9464 10 15.9464Z" fill="#718096"/>
</svg>
