<svg width="21" height="21" viewBox="0 0 21 21" fill="none" xmlns="http://www.w3.org/2000/svg">
<path d="M6.48041 16.0363L4.96359 14.5195C4.26396 13.8199 4.17486 12.7162 4.75319 11.9134C5.18541 11.3134 5.71361 10.7888 6.31653 10.3607L6.59784 10.161C7.245 9.70148 8.12925 9.77592 8.69047 10.3371L10.6868 12.3335C11.2342 12.8808 11.3068 13.7432 10.8586 14.3744L10.6392 14.6834C10.2111 15.2863 9.68653 15.8145 9.08656 16.2467C8.28376 16.8251 7.18004 16.736 6.48041 16.0363Z" fill="#358FF7" stroke="white" stroke-width="1.5" stroke-linecap="round" stroke-linejoin="round"/>
<path d="M16.0363 6.48041L14.5195 4.96359C13.8199 4.26396 12.7162 4.17486 11.9134 4.75319C11.3134 5.18541 10.7888 5.71361 10.3607 6.31653L10.161 6.59784C9.70148 7.245 9.77592 8.12925 10.3371 8.69047L12.3335 10.6868C12.8808 11.2342 13.7432 11.3068 14.3744 10.8586L14.6834 10.6392C15.2863 10.2111 15.8145 9.68653 16.2467 9.08656C16.8251 8.28376 16.736 7.18004 16.0363 6.48041Z" fill="#358FF7"/>
<path d="M16.0363 6.48041L14.5195 4.96359C13.8199 4.26396 12.7162 4.17486 11.9134 4.75319C11.3134 5.18541 10.7888 5.71361 10.3607 6.31653L10.161 6.59784C9.70148 7.245 9.77592 8.12925 10.3371 8.69047L12.3335 10.6868C12.8808 11.2342 13.7432 11.3068 14.3744 10.8586L14.6834 10.6392C15.2863 10.2111 15.8145 9.68653 16.2467 9.08656C16.8251 8.28376 16.736 7.18004 16.0363 6.48041Z" stroke="white" stroke-width="1.5" stroke-linecap="round" stroke-linejoin="round"/>
<path d="M12.3617 8.63831L8.64722 12.3528" stroke="white" stroke-width="1.5" stroke-linecap="round" stroke-linejoin="round"/>
</svg>
