<svg width="25" height="24" viewBox="0 0 25 24" fill="none" xmlns="http://www.w3.org/2000/svg">
<path d="M10.6372 14C10.9631 14.3326 11.3521 14.5968 11.7813 14.7772C12.2106 14.9576 12.6716 15.0505 13.1372 15.0505C13.6028 15.0505 14.0638 14.9576 14.4931 14.7772C14.9224 14.5968 15.3113 14.3326 15.6372 14L19.6372 10C20.3002 9.33697 20.6727 8.43769 20.6727 7.50001C20.6727 6.56233 20.3002 5.66305 19.6372 5.00001C18.9742 4.33697 18.0749 3.96448 17.1372 3.96448C16.1995 3.96448 15.3002 4.33697 14.6372 5.00001L14.1372 5.50001" stroke="#718096" stroke-width="1.5" stroke-linecap="round" stroke-linejoin="round"/>
<path d="M14.6371 9.99997C14.3112 9.66737 13.9222 9.40315 13.493 9.22276C13.0637 9.04238 12.6027 8.94946 12.1371 8.94946C11.6715 8.94946 11.2105 9.04238 10.7812 9.22276C10.3519 9.40315 9.96298 9.66737 9.6371 9.99997L5.6371 14C4.97406 14.663 4.60156 15.5623 4.60156 16.5C4.60156 17.4377 4.97406 18.3369 5.6371 19C6.30014 19.663 7.19941 20.0355 8.1371 20.0355C9.07478 20.0355 9.97406 19.663 10.6371 19L11.1371 18.5" stroke="#718096" stroke-width="1.5" stroke-linecap="round" stroke-linejoin="round"/>
</svg>
