<svg width="25" height="24" viewBox="0 0 25 24" fill="none" xmlns="http://www.w3.org/2000/svg">
<path d="M12.6372 21C17.6078 21 21.6372 16.9706 21.6372 12C21.6372 7.02944 17.6078 3 12.6372 3C7.66664 3 3.63721 7.02944 3.63721 12C3.63721 16.9706 7.66664 21 12.6372 21Z" stroke="#718096" stroke-width="1.5" stroke-linecap="round" stroke-linejoin="round"/>
<path d="M9.63721 10H9.64721" stroke="#718096" stroke-width="2" stroke-linecap="round" stroke-linejoin="round"/>
<path d="M15.6372 10H15.6472" stroke="#718096" stroke-width="2" stroke-linecap="round" stroke-linejoin="round"/>
<path d="M10.1372 15C10.4631 15.3326 10.8521 15.5968 11.2813 15.7772C11.7106 15.9576 12.1716 16.0505 12.6372 16.0505C13.1028 16.0505 13.5638 15.9576 13.9931 15.7772C14.4224 15.5968 14.8113 15.3326 15.1372 15" stroke="#718096" stroke-width="1.5" stroke-linecap="round" stroke-linejoin="round"/>
</svg>
