<svg width="48" height="48" viewBox="0 0 48 48" fill="none" xmlns="http://www.w3.org/2000/svg">
<rect width="48" height="48" rx="24" fill="#FAFAFA"/>
<path d="M21.6667 15.8333C21.6667 15.2145 21.9126 14.621 22.3502 14.1834C22.7878 13.7458 23.3812 13.5 24.0001 13.5C24.6189 13.5 25.2124 13.7458 25.65 14.1834C26.0876 14.621 26.3334 15.2145 26.3334 15.8333C27.6732 16.4669 28.8154 17.453 29.6375 18.6862C30.4596 19.9193 30.9306 21.3529 31.0001 22.8333V26.3333C31.0879 27.0587 31.3448 27.7532 31.75 28.3611C32.1553 28.9691 32.6977 29.4733 33.3334 29.8333H14.6667C15.3025 29.4733 15.8449 28.9691 16.2501 28.3611C16.6554 27.7532 16.9123 27.0587 17.0001 26.3333V22.8333C17.0696 21.3529 17.5406 19.9193 18.3627 18.6862C19.1848 17.453 20.3269 16.4669 21.6667 15.8333" stroke="#1A202C" stroke-width="1.5" stroke-linecap="round" stroke-linejoin="round"/>
<path d="M20.5 29.8333V31C20.5 31.9282 20.8687 32.8185 21.5251 33.4749C22.1815 34.1312 23.0717 34.5 24 34.5C24.9283 34.5 25.8185 34.1312 26.4749 33.4749C27.1313 32.8185 27.5 31.9282 27.5 31V29.8333" stroke="#1A202C" stroke-width="1.5" stroke-linecap="round" stroke-linejoin="round"/>
<circle cx="33" cy="18" r="5.75" fill="#FF4747" stroke="#F2F6FF" stroke-width="1.5"/>
</svg>
