<svg width="12" height="14" viewBox="0 0 12 14" fill="none" xmlns="http://www.w3.org/2000/svg">
<path d="M1.50232 3.07654C1.04684 5.62815 0.927374 9.2746 1.18795 11.6387C1.23386 12.0552 1.59288 12.3571 2.01189 12.3571H9.98824C10.4072 12.3571 10.7663 12.0552 10.8122 11.6387C11.0728 9.2746 10.9533 5.62815 10.4978 3.07654C10.3866 2.45329 9.9003 1.98152 9.27344 1.89278C8.38603 1.76715 7.13089 1.64282 6.00007 1.64282C4.86925 1.64282 3.6141 1.76715 2.72669 1.89278C2.09984 1.98152 1.61358 2.45329 1.50232 3.07654Z" fill="#E8F5FF" stroke="#358FF7" stroke-width="1.5" stroke-linecap="round" stroke-linejoin="round"/>
<path d="M7.28577 7.42859H8.14291" stroke="#358FF7" stroke-width="1.5" stroke-linecap="round" stroke-linejoin="round"/>
<path d="M4.71423 10.8571V12.3571H7.28566V10.8571C7.28566 10.147 6.71003 9.57141 5.99995 9.57141C5.28987 9.57141 4.71423 10.147 4.71423 10.8571Z" fill="white" stroke="#358FF7" stroke-width="1.5" stroke-linecap="round" stroke-linejoin="round"/>
<path d="M3.85718 4.85718H4.71432" stroke="#358FF7" stroke-width="1.5" stroke-linecap="round" stroke-linejoin="round"/>
<path d="M7.28577 4.85718H8.14291" stroke="#358FF7" stroke-width="1.5" stroke-linecap="round" stroke-linejoin="round"/>
<path d="M3.85718 7.42859H4.71432" stroke="#358FF7" stroke-width="1.5" stroke-linecap="round" stroke-linejoin="round"/>
</svg>
