<svg width="18" height="17" viewBox="0 0 18 17" fill="none" xmlns="http://www.w3.org/2000/svg">
<path d="M6.50008 7.48808C8.34103 7.48808 9.83341 5.99569 9.83341 4.15474C9.83341 2.3138 8.34103 0.821411 6.50008 0.821411C4.65913 0.821411 3.16675 2.3138 3.16675 4.15474C3.16675 5.99569 4.65913 7.48808 6.50008 7.48808Z" stroke="#718096" stroke-width="1.5" stroke-linecap="round" stroke-linejoin="round"/>
<path d="M1.5 15.8214V14.1547C1.5 13.2707 1.85119 12.4228 2.47631 11.7977C3.10143 11.1726 3.94928 10.8214 4.83333 10.8214H8.16667C9.05072 10.8214 9.89857 11.1726 10.5237 11.7977C11.1488 12.4228 11.5 13.2707 11.5 14.1547V15.8214" stroke="#718096" stroke-width="1.5" stroke-linecap="round" stroke-linejoin="round"/>
<path d="M12.3333 0.929688C13.0503 1.11327 13.6858 1.53027 14.1396 2.11495C14.5935 2.69962 14.8398 3.41871 14.8398 4.15885C14.8398 4.899 14.5935 5.61809 14.1396 6.20276C13.6858 6.78744 13.0503 7.20444 12.3333 7.38802" stroke="#718096" stroke-width="1.5" stroke-linecap="round" stroke-linejoin="round"/>
<path d="M16.5 15.8214V14.1547C16.4958 13.419 16.2483 12.7054 15.7961 12.1251C15.3439 11.5447 14.7124 11.1303 14 10.9464" stroke="#718096" stroke-width="1.5" stroke-linecap="round" stroke-linejoin="round"/>
</svg>
