<svg width="25" height="24" viewBox="0 0 25 24" fill="none" xmlns="http://www.w3.org/2000/svg">
<path d="M15.6372 8H15.6472" stroke="#718096" stroke-width="2" stroke-linecap="round" stroke-linejoin="round"/>
<path d="M17.6372 4H7.63721C5.98035 4 4.63721 5.34315 4.63721 7V17C4.63721 18.6569 5.98035 20 7.63721 20H17.6372C19.2941 20 20.6372 18.6569 20.6372 17V7C20.6372 5.34315 19.2941 4 17.6372 4Z" stroke="#718096" stroke-width="1.5" stroke-linecap="round" stroke-linejoin="round"/>
<path d="M4.63721 15L8.63721 11C9.09326 10.5611 9.6106 10.3301 10.1372 10.3301C10.6638 10.3301 11.1811 10.5611 11.6372 11L16.6372 16" stroke="#718096" stroke-width="1.5" stroke-linecap="round" stroke-linejoin="round"/>
<path d="M14.6372 14L15.6372 13C16.0933 12.5611 16.6106 12.3301 17.1372 12.3301C17.6638 12.3301 18.1811 12.5611 18.6372 13L20.6372 15" stroke="#718096" stroke-width="1.5" stroke-linecap="round" stroke-linejoin="round"/>
</svg>
