<svg width="21" height="21" viewBox="0 0 21 21" fill="none" xmlns="http://www.w3.org/2000/svg">
<path d="M3.76742 14.4592C3.92549 15.8994 5.08032 17.054 6.51986 17.2181C7.81158 17.3654 9.14168 17.5 10.5 17.5C11.8583 17.5 13.1884 17.3654 14.4801 17.2181C15.9197 17.054 17.0745 15.8994 17.2326 14.4592C17.3736 13.1742 17.5 11.8511 17.5 10.5C17.5 9.1489 17.3736 7.82582 17.2326 6.5408C17.0745 5.10058 15.9197 3.94603 14.4801 3.78186C13.1884 3.63456 11.8583 3.5 10.5 3.5C9.14168 3.5 7.81158 3.63456 6.51986 3.78186C5.08032 3.94603 3.92549 5.10058 3.76742 6.5408C3.62638 7.82582 3.5 9.1489 3.5 10.5C3.5 11.8511 3.62638 13.1742 3.76742 14.4592Z" fill="#358FF7" stroke="white" stroke-width="1.5"/>
<path d="M10.5 7.69995L10.5 13.3" stroke="white" stroke-width="1.5" stroke-linecap="round"/>
<path d="M13.3 10.5L7.70005 10.5" stroke="white" stroke-width="1.5" stroke-linecap="round"/>
</svg>
