<svg width="14" height="14" viewBox="0 0 14 14" fill="none" xmlns="http://www.w3.org/2000/svg">
<path d="M9.91667 9.91667H11.0833C11.3928 9.91667 11.6895 9.79375 11.9083 9.57496C12.1271 9.35617 12.25 9.05942 12.25 8.75V6.41667C12.25 6.10725 12.1271 5.8105 11.9083 5.59171C11.6895 5.37292 11.3928 5.25 11.0833 5.25H2.91667C2.60725 5.25 2.3105 5.37292 2.09171 5.59171C1.87292 5.8105 1.75 6.10725 1.75 6.41667V8.75C1.75 9.05942 1.87292 9.35617 2.09171 9.57496C2.3105 9.79375 2.60725 9.91667 2.91667 9.91667H4.08333" stroke="#718096" stroke-width="1.5" stroke-linecap="round" stroke-linejoin="round"/>
<path d="M9.91665 5.25V2.91667C9.91665 2.60725 9.79373 2.3105 9.57494 2.09171C9.35614 1.87292 9.0594 1.75 8.74998 1.75H5.24998C4.94056 1.75 4.64381 1.87292 4.42502 2.09171C4.20623 2.3105 4.08331 2.60725 4.08331 2.91667V5.25" stroke="#718096" stroke-width="1.5" stroke-linecap="round" stroke-linejoin="round"/>
<path d="M8.74998 7.58337H5.24998C4.60565 7.58337 4.08331 8.10571 4.08331 8.75004V11.0834C4.08331 11.7277 4.60565 12.25 5.24998 12.25H8.74998C9.39431 12.25 9.91665 11.7277 9.91665 11.0834V8.75004C9.91665 8.10571 9.39431 7.58337 8.74998 7.58337Z" stroke="#718096" stroke-width="1.5" stroke-linecap="round" stroke-linejoin="round"/>
</svg>
