<svg width="18" height="19" viewBox="0 0 18 19" fill="none" xmlns="http://www.w3.org/2000/svg">
<path d="M7.46458 2.27866C7.85508 0.668994 10.1449 0.668994 10.5354 2.27866C10.594 2.52048 10.7089 2.74504 10.8707 2.93408C11.0324 3.12311 11.2366 3.27128 11.4664 3.36651C11.6963 3.46175 11.9454 3.50136 12.1935 3.48212C12.4415 3.46289 12.6816 3.38536 12.894 3.25583C14.3084 2.39416 15.9282 4.01299 15.0665 5.42833C14.9372 5.64068 14.8597 5.88055 14.8406 6.12845C14.8214 6.37635 14.8609 6.62528 14.9561 6.85501C15.0512 7.08474 15.1992 7.28877 15.388 7.45054C15.5768 7.61231 15.8012 7.72724 16.0428 7.78599C17.6524 8.17649 17.6524 10.4663 16.0428 10.8568C15.8009 10.9154 15.5764 11.0303 15.3873 11.1921C15.1983 11.3538 15.0501 11.558 14.9549 11.7878C14.8597 12.0177 14.8201 12.2668 14.8393 12.5149C14.8585 12.763 14.9361 13.003 15.0656 13.2154C15.9273 14.6298 14.3084 16.2496 12.8931 15.3879C12.6807 15.2586 12.4409 15.1812 12.193 15.162C11.9451 15.1428 11.6961 15.1824 11.4664 15.2775C11.2367 15.3726 11.0326 15.5206 10.8709 15.7094C10.7091 15.8982 10.5942 16.1226 10.5354 16.3642C10.1449 17.9738 7.85508 17.9738 7.46458 16.3642C7.40599 16.1223 7.29113 15.8978 7.12935 15.7087C6.96757 15.5197 6.76344 15.3715 6.53357 15.2763C6.3037 15.1811 6.0546 15.1415 5.80653 15.1607C5.55846 15.1799 5.31844 15.2575 5.106 15.387C3.69158 16.2487 2.07183 14.6298 2.9335 13.2145C3.06284 13.0021 3.14025 12.7623 3.15944 12.5144C3.17863 12.2665 3.13906 12.0175 3.04393 11.7878C2.94881 11.5581 2.80082 11.354 2.612 11.1923C2.42318 11.0305 2.19885 10.9156 1.95725 10.8568C0.347583 10.4663 0.347583 8.17649 1.95725 7.78599C2.19907 7.7274 2.42363 7.61254 2.61267 7.45076C2.8017 7.28898 2.94987 7.08485 3.0451 6.85498C3.14033 6.62511 3.17995 6.37601 3.16071 6.12794C3.14148 5.87987 3.06394 5.63985 2.93442 5.42741C2.07275 4.01299 3.69158 2.39324 5.10692 3.25491C6.02358 3.81224 7.21158 3.31908 7.46458 2.27866Z" stroke="#718096" stroke-width="1.5" stroke-linecap="round" stroke-linejoin="round"/>
<path d="M9 12.0714C10.5188 12.0714 11.75 10.8402 11.75 9.32141C11.75 7.80263 10.5188 6.57141 9 6.57141C7.48122 6.57141 6.25 7.80263 6.25 9.32141C6.25 10.8402 7.48122 12.0714 9 12.0714Z" stroke="#718096" stroke-width="1.5" stroke-linecap="round" stroke-linejoin="round"/>
</svg>
