<svg width="202" height="36" viewBox="0 0 202 36" fill="none" xmlns="http://www.w3.org/2000/svg">
<circle cx="18.6608" cy="17.6607" r="16.9643" fill="#38BDF8"/>
<circle cx="23.8056" cy="11.6814" r="5.97922" fill="#E8F5FF"/>
<path d="M43.5424 31V4.75H48.6799L58.2049 20.275L54.8674 20.2375L64.5424 4.75H69.4924V31H63.9799V22.1125C63.9799 19.8375 64.0299 17.7875 64.1299 15.9625C64.2549 14.1375 64.4549 12.3375 64.7299 10.5625L65.3674 12.325L57.6799 24.2125H55.1674L47.6674 12.4L48.2674 10.5625C48.5674 12.2375 48.7674 13.9625 48.8674 15.7375C48.9924 17.5125 49.0549 19.6375 49.0549 22.1125V31H43.5424ZM84.1941 31.375C82.0441 31.375 80.1566 30.9375 78.5316 30.0625C76.9316 29.1875 75.6816 27.9875 74.7816 26.4625C73.9066 24.9375 73.4691 23.2 73.4691 21.25C73.4691 19.7 73.7191 18.2875 74.2191 17.0125C74.7191 15.7125 75.4191 14.6 76.3191 13.675C77.2191 12.75 78.2816 12.0375 79.5066 11.5375C80.7566 11.0125 82.1191 10.75 83.5941 10.75C84.9441 10.75 86.1816 11 87.3066 11.5C88.4566 11.975 89.4441 12.6625 90.2691 13.5625C91.1191 14.4375 91.7691 15.475 92.2191 16.675C92.6691 17.875 92.8816 19.1875 92.8566 20.6125L92.8191 22.2625H76.8816L76.0191 18.9625H88.4316L87.7941 19.6375V18.85C87.7441 18.15 87.5191 17.5375 87.1191 17.0125C86.7441 16.4875 86.2566 16.075 85.6566 15.775C85.0566 15.45 84.3941 15.2875 83.6691 15.2875C82.5441 15.2875 81.5941 15.5125 80.8191 15.9625C80.0691 16.3875 79.4941 17.0125 79.0941 17.8375C78.7191 18.6375 78.5316 19.6375 78.5316 20.8375C78.5316 22.0125 78.7816 23.05 79.2816 23.95C79.7816 24.825 80.4941 25.5 81.4191 25.975C82.3691 26.45 83.4816 26.6875 84.7566 26.6875C85.6316 26.6875 86.4316 26.55 87.1566 26.275C87.8816 26 88.6691 25.525 89.5191 24.85L92.0316 28.4125C91.3316 29.0375 90.5441 29.575 89.6691 30.025C88.7941 30.475 87.8941 30.8125 86.9691 31.0375C86.0441 31.2625 85.1191 31.375 84.1941 31.375ZM103.841 31.375C102.116 31.375 100.553 30.9375 99.1534 30.0625C97.7784 29.1875 96.6909 27.975 95.8909 26.425C95.1159 24.85 94.7284 23.075 94.7284 21.1C94.7284 19.1 95.1159 17.325 95.8909 15.775C96.6909 14.225 97.7784 13 99.1534 12.1C100.528 11.2 102.091 10.75 103.841 10.75C104.766 10.75 105.653 10.9 106.503 11.2C107.378 11.475 108.153 11.8625 108.828 12.3625C109.503 12.8625 110.053 13.425 110.478 14.05C110.903 14.65 111.153 15.275 111.228 15.925L109.878 16.1875V3.25H115.166V31H110.141L109.916 26.425L110.966 26.575C110.941 27.175 110.728 27.7625 110.328 28.3375C109.928 28.9125 109.391 29.4375 108.716 29.9125C108.066 30.3625 107.316 30.725 106.466 31C105.641 31.25 104.766 31.375 103.841 31.375ZM105.003 26.95C106.028 26.95 106.903 26.7 107.628 26.2C108.378 25.7 108.966 25.0125 109.391 24.1375C109.816 23.2625 110.028 22.25 110.028 21.1C110.028 19.925 109.816 18.9 109.391 18.025C108.966 17.125 108.378 16.4375 107.628 15.9625C106.903 15.4625 106.028 15.2125 105.003 15.2125C104.028 15.2125 103.166 15.4625 102.416 15.9625C101.666 16.4375 101.078 17.125 100.653 18.025C100.253 18.9 100.053 19.925 100.053 21.1C100.053 22.25 100.253 23.2625 100.653 24.1375C101.078 25.0125 101.666 25.7 102.416 26.2C103.166 26.7 104.028 26.95 105.003 26.95ZM120.021 31V11.1625H125.346V31H120.021ZM122.646 7.075C121.621 7.075 120.821 6.825 120.246 6.325C119.671 5.825 119.383 5.1125 119.383 4.1875C119.383 3.3375 119.671 2.65 120.246 2.125C120.846 1.575 121.658 1.3 122.683 1.3C123.683 1.3 124.471 1.5625 125.046 2.0875C125.621 2.5875 125.908 3.2875 125.908 4.1875C125.908 5.0625 125.621 5.7625 125.046 6.2875C124.471 6.8125 123.671 7.075 122.646 7.075ZM130.32 31V11.1625H135.457L135.607 15.2125L134.557 15.6625C134.807 14.7625 135.295 13.95 136.02 13.225C136.745 12.475 137.607 11.875 138.607 11.425C139.607 10.975 140.645 10.75 141.72 10.75C143.22 10.75 144.47 11.05 145.47 11.65C146.495 12.25 147.257 13.1625 147.757 14.3875C148.282 15.5875 148.545 17.0875 148.545 18.8875V31H143.22V19.2625C143.22 18.3625 143.095 17.6125 142.845 17.0125C142.595 16.4125 142.22 15.975 141.72 15.7C141.22 15.425 140.582 15.3 139.807 15.325C139.207 15.325 138.657 15.425 138.157 15.625C137.657 15.8 137.207 16.0625 136.807 16.4125C136.432 16.7625 136.145 17.1625 135.945 17.6125C135.745 18.0625 135.645 18.5625 135.645 19.1125V31H132.982C132.432 31 131.932 31 131.482 31C131.032 31 130.645 31 130.32 31ZM153.347 31V11.1625H158.672V31H153.347ZM155.972 7.075C154.947 7.075 154.147 6.825 153.572 6.325C152.997 5.825 152.71 5.1125 152.71 4.1875C152.71 3.3375 152.997 2.65 153.572 2.125C154.172 1.575 154.985 1.3 156.01 1.3C157.01 1.3 157.797 1.5625 158.372 2.0875C158.947 2.5875 159.235 3.2875 159.235 4.1875C159.235 5.0625 158.947 5.7625 158.372 6.2875C157.797 6.8125 156.997 7.075 155.972 7.075ZM165.596 31.4125C164.646 31.4125 163.909 31.1375 163.384 30.5875C162.859 30.0375 162.596 29.25 162.596 28.225C162.596 27.275 162.871 26.5 163.421 25.9C163.971 25.3 164.696 25 165.596 25C166.571 25 167.321 25.2875 167.846 25.8625C168.371 26.4125 168.634 27.2 168.634 28.225C168.634 29.175 168.346 29.95 167.771 30.55C167.221 31.125 166.496 31.4125 165.596 31.4125ZM183.149 31V18.5875C183.149 17.5375 182.824 16.7375 182.174 16.1875C181.549 15.6125 180.699 15.325 179.624 15.325C178.599 15.325 177.687 15.525 176.887 15.925C176.087 16.325 175.337 16.95 174.637 17.8L171.374 14.65C172.574 13.4 173.912 12.4375 175.387 11.7625C176.887 11.0875 178.512 10.75 180.262 10.75C181.862 10.75 183.249 11 184.424 11.5C185.624 12 186.549 12.75 187.199 13.75C187.849 14.75 188.174 16.0125 188.174 17.5375V31H183.149ZM177.712 31.375C176.462 31.375 175.324 31.125 174.299 30.625C173.299 30.125 172.499 29.4375 171.899 28.5625C171.324 27.6625 171.037 26.6125 171.037 25.4125C171.037 24.3875 171.224 23.4875 171.599 22.7125C171.974 21.9125 172.524 21.2625 173.249 20.7625C173.999 20.2375 174.924 19.8375 176.024 19.5625C177.149 19.2875 178.449 19.15 179.924 19.15H185.774L185.437 22.7125H179.849C179.249 22.7125 178.712 22.7625 178.237 22.8625C177.787 22.9625 177.399 23.125 177.074 23.35C176.774 23.575 176.537 23.8375 176.362 24.1375C176.212 24.4375 176.137 24.7875 176.137 25.1875C176.137 25.6125 176.249 25.9875 176.474 26.3125C176.699 26.6375 176.999 26.8875 177.374 27.0625C177.774 27.2375 178.224 27.325 178.724 27.325C179.449 27.325 180.137 27.2 180.787 26.95C181.462 26.7 182.062 26.35 182.587 25.9C183.112 25.45 183.524 24.9375 183.824 24.3625L184.837 27.025C184.312 27.875 183.674 28.625 182.924 29.275C182.174 29.925 181.362 30.4375 180.487 30.8125C179.612 31.1875 178.687 31.375 177.712 31.375ZM192.662 31V11.1625H197.987V31H192.662ZM195.287 7.075C194.262 7.075 193.462 6.825 192.887 6.325C192.312 5.825 192.025 5.1125 192.025 4.1875C192.025 3.3375 192.312 2.65 192.887 2.125C193.487 1.575 194.3 1.3 195.325 1.3C196.325 1.3 197.112 1.5625 197.687 2.0875C198.262 2.5875 198.55 3.2875 198.55 4.1875C198.55 5.0625 198.262 5.7625 197.687 6.2875C197.112 6.8125 196.312 7.075 195.287 7.075Z" fill="#1A202C"/>
</svg>
