<svg width="12" height="10" viewBox="0 0 12 10" fill="none" xmlns="http://www.w3.org/2000/svg">
<path d="M4.8466 5.16146C5.96124 5.16146 6.86483 4.25787 6.86483 3.14323C6.86483 2.02859 5.96124 1.125 4.8466 1.125C3.73196 1.125 2.82837 2.02859 2.82837 3.14323C2.82837 4.25787 3.73196 5.16146 4.8466 5.16146Z" fill="#FDE047" stroke="#EAB308" stroke-width="0.96875" stroke-linecap="round" stroke-linejoin="round"/>
<path d="M8.42984 7.48221C9.29518 8.06013 8.75246 9.19774 7.71188 9.19774H1.98144C0.940854 9.19774 0.398133 8.06013 1.26348 7.48221C2.28884 6.79743 3.52112 6.39819 4.84666 6.39819C6.17219 6.39819 7.40448 6.79743 8.42984 7.48221Z" fill="#FDE047" stroke="#EAB308" stroke-width="0.96875"/>
<path d="M9.43125 2.61027L9.4582 2.62806C9.49315 2.57511 9.53727 2.53475 9.59073 2.50643C9.6457 2.47791 9.7042 2.46368 9.76667 2.46368C9.82961 2.46368 9.88577 2.47697 9.9358 2.50303L9.9358 2.50304L9.93651 2.50339C9.98743 2.52833 10.0269 2.56383 10.0557 2.61013C10.0843 2.65605 10.099 2.70963 10.099 2.77196C10.099 2.83656 10.0838 2.89319 10.0538 2.94275C10.0227 2.99431 9.97984 3.04328 9.92479 3.08953C9.86985 3.13549 9.80682 3.1811 9.7356 3.22632L9.7356 3.22632L9.73539 3.22645C9.64271 3.28629 9.56359 3.3529 9.49835 3.42642C9.43125 3.50088 9.38112 3.59848 9.34689 3.7177L9.34689 3.71769L9.34681 3.71798C9.31359 3.8378 9.29748 3.99646 9.29748 4.19275C9.29748 4.24953 9.34351 4.29556 9.40029 4.29556H9.992C10.0488 4.29556 10.0948 4.24953 10.0948 4.19275C10.0948 4.09351 10.1088 4.01194 10.1354 3.94698L10.1355 3.94681C10.1624 3.88 10.2023 3.82069 10.2553 3.76871C10.3104 3.71583 10.3799 3.66458 10.4642 3.61513L10.4643 3.61505C10.5763 3.54855 10.6741 3.47481 10.7576 3.39371L10.7576 3.3937C10.8431 3.31056 10.9097 3.21481 10.9573 3.10661C11.0053 2.99744 11.0288 2.87247 11.0288 2.7324C11.0288 2.51914 10.9745 2.33668 10.8643 2.18691C10.7548 2.03815 10.6046 1.92631 10.415 1.85095L10.4031 1.88096L10.4151 1.85098C10.2271 1.77579 10.0131 1.73858 9.77355 1.73858C9.55421 1.73858 9.35272 1.77651 9.1695 1.85284C8.98515 1.92849 8.83632 2.04581 8.72376 2.20458L8.72376 2.20458L8.72366 2.20471C8.68027 2.26656 8.64513 2.33502 8.61815 2.40993C8.57619 2.52641 8.6091 2.63724 8.6818 2.71746C8.75391 2.79704 8.86541 2.84726 8.98452 2.84726H9.15917C9.22903 2.84726 9.28792 2.81646 9.33657 2.77458C9.38496 2.73293 9.4251 2.67875 9.45829 2.62793L9.43125 2.61027ZM9.43125 2.61027C9.46909 2.55294 9.51726 2.50879 9.57574 2.47783C9.63537 2.44687 9.69901 2.43139 9.76667 2.43139C9.83432 2.43139 9.89567 2.44572 9.95072 2.47439L8.7501 2.22326C8.70845 2.28262 8.6746 2.3485 8.64853 2.42087C8.57374 2.6285 8.76384 2.81496 8.98452 2.81496H9.15917C9.27858 2.81496 9.36596 2.71025 9.43125 2.61027ZM9.36901 5.2839L9.36886 5.28375C9.27561 5.19051 9.22924 5.07676 9.23039 4.94443M9.36901 5.2839L10.0212 4.63309C9.9318 4.54594 9.82802 4.50236 9.70991 4.50236C9.58606 4.50236 9.47999 4.54594 9.39169 4.63309L9.36901 4.61011C9.36901 4.61011 9.36901 4.61011 9.36901 4.61011C9.27576 4.70213 9.22924 4.81419 9.23039 4.94443M9.36901 5.2839C9.46334 5.37701 9.57755 5.42394 9.70991 5.42394C9.79475 5.42394 9.87332 5.40234 9.94494 5.35915M9.36901 5.2839L10.0438 4.60996C10.1392 4.70181 10.1882 4.81376 10.1894 4.94412L10.1894 4.94487C10.1882 5.03307 10.1648 5.11394 10.1192 5.18674C10.0753 5.25875 10.0171 5.31635 9.94494 5.35915M9.23039 4.94443C9.23039 4.94453 9.23039 4.94463 9.23039 4.94473L9.26268 4.94442L9.23039 4.94413C9.23039 4.94423 9.23039 4.94433 9.23039 4.94443ZM9.94494 5.35915C9.9449 5.35917 9.94487 5.35919 9.94483 5.35922L9.92836 5.33144M9.94494 5.35915C9.94497 5.35913 9.94501 5.35911 9.94504 5.35909L9.92836 5.33144M9.92836 5.33144C9.86185 5.37158 9.78903 5.39165 9.70991 5.39165C9.58606 5.39165 9.47999 5.34807 9.39169 5.26092L10.1571 4.94442C10.156 5.02699 10.1342 5.1021 10.0918 5.16976C10.0505 5.23741 9.99601 5.29131 9.92836 5.33144Z" fill="#EAB308" stroke="#EAB308" stroke-width="0.0645833"/>
</svg>
