<svg width="224" height="39" viewBox="0 0 224 39" fill="none" xmlns="http://www.w3.org/2000/svg">
<circle cx="19" cy="19.62" r="19" fill="#38BDF8"/>
<circle cx="24.7624" cy="12.9233" r="6.69672" fill="#E8F5FF"/>
<path d="M47.2074 34.5V5.1H52.9614L63.6294 22.488L59.8914 22.446L70.7274 5.1H76.2714V34.5H70.0974V24.546C70.0974 21.998 70.1534 19.702 70.2654 17.658C70.4054 15.614 70.6294 13.598 70.9374 11.61L71.6514 13.584L63.0414 26.898H60.2274L51.8274 13.668L52.4994 11.61C52.8354 13.486 53.0594 15.418 53.1714 17.406C53.3114 19.394 53.3814 21.774 53.3814 24.546V34.5H47.2074ZM92.7374 34.92C90.3294 34.92 88.2154 34.43 86.3954 33.45C84.6034 32.47 83.2034 31.126 82.1954 29.418C81.2154 27.71 80.7254 25.764 80.7254 23.58C80.7254 21.844 81.0054 20.262 81.5654 18.834C82.1254 17.378 82.9094 16.132 83.9174 15.096C84.9254 14.06 86.1154 13.262 87.4874 12.702C88.8874 12.114 90.4134 11.82 92.0654 11.82C93.5774 11.82 94.9634 12.1 96.2234 12.66C97.5114 13.192 98.6174 13.962 99.5414 14.97C100.493 15.95 101.221 17.112 101.725 18.456C102.229 19.8 102.467 21.27 102.439 22.866L102.397 24.714H84.5474L83.5814 21.018H97.4834L96.7694 21.774V20.892C96.7134 20.108 96.4614 19.422 96.0134 18.834C95.5934 18.246 95.0474 17.784 94.3754 17.448C93.7034 17.084 92.9614 16.902 92.1494 16.902C90.8894 16.902 89.8254 17.154 88.9574 17.658C88.1174 18.134 87.4734 18.834 87.0254 19.758C86.6054 20.654 86.3954 21.774 86.3954 23.118C86.3954 24.434 86.6754 25.596 87.2354 26.604C87.7954 27.584 88.5934 28.34 89.6294 28.872C90.6934 29.404 91.9394 29.67 93.3674 29.67C94.3474 29.67 95.2434 29.516 96.0554 29.208C96.8674 28.9 97.7494 28.368 98.7014 27.612L101.515 31.602C100.731 32.302 99.8494 32.904 98.8694 33.408C97.8894 33.912 96.8814 34.29 95.8454 34.542C94.8094 34.794 93.7734 34.92 92.7374 34.92ZM114.742 34.92C112.81 34.92 111.06 34.43 109.492 33.45C107.952 32.47 106.734 31.112 105.838 29.376C104.97 27.612 104.536 25.624 104.536 23.412C104.536 21.172 104.97 19.184 105.838 17.448C106.734 15.712 107.952 14.34 109.492 13.332C111.032 12.324 112.782 11.82 114.742 11.82C115.778 11.82 116.772 11.988 117.724 12.324C118.704 12.632 119.572 13.066 120.328 13.626C121.084 14.186 121.7 14.816 122.176 15.516C122.652 16.188 122.932 16.888 123.016 17.616L121.504 17.91V3.42H127.426V34.5H121.798L121.546 29.376L122.722 29.544C122.694 30.216 122.456 30.874 122.008 31.518C121.56 32.162 120.958 32.75 120.202 33.282C119.474 33.786 118.634 34.192 117.682 34.5C116.758 34.78 115.778 34.92 114.742 34.92ZM116.044 29.964C117.192 29.964 118.172 29.684 118.984 29.124C119.824 28.564 120.482 27.794 120.958 26.814C121.434 25.834 121.672 24.7 121.672 23.412C121.672 22.096 121.434 20.948 120.958 19.968C120.482 18.96 119.824 18.19 118.984 17.658C118.172 17.098 117.192 16.818 116.044 16.818C114.952 16.818 113.986 17.098 113.146 17.658C112.306 18.19 111.648 18.96 111.172 19.968C110.724 20.948 110.5 22.096 110.5 23.412C110.5 24.7 110.724 25.834 111.172 26.814C111.648 27.794 112.306 28.564 113.146 29.124C113.986 29.684 114.952 29.964 116.044 29.964ZM132.863 34.5V12.282H138.827V34.5H132.863ZM135.803 7.704C134.655 7.704 133.759 7.424 133.115 6.864C132.471 6.304 132.149 5.506 132.149 4.47C132.149 3.518 132.471 2.748 133.115 2.16C133.787 1.544 134.697 1.236 135.845 1.236C136.965 1.236 137.847 1.53 138.491 2.118C139.135 2.678 139.457 3.462 139.457 4.47C139.457 5.45 139.135 6.234 138.491 6.822C137.847 7.41 136.951 7.704 135.803 7.704ZM144.398 34.5V12.282H150.152L150.32 16.818L149.144 17.322C149.424 16.314 149.97 15.404 150.782 14.592C151.594 13.752 152.56 13.08 153.68 12.576C154.8 12.072 155.962 11.82 157.166 11.82C158.846 11.82 160.246 12.156 161.366 12.828C162.514 13.5 163.368 14.522 163.928 15.894C164.516 17.238 164.81 18.918 164.81 20.934V34.5H158.846V21.354C158.846 20.346 158.706 19.506 158.426 18.834C158.146 18.162 157.726 17.672 157.166 17.364C156.606 17.056 155.892 16.916 155.024 16.944C154.352 16.944 153.736 17.056 153.176 17.28C152.616 17.476 152.112 17.77 151.664 18.162C151.244 18.554 150.922 19.002 150.698 19.506C150.474 20.01 150.362 20.57 150.362 21.186V34.5H147.38C146.764 34.5 146.204 34.5 145.7 34.5C145.196 34.5 144.762 34.5 144.398 34.5ZM170.189 34.5V12.282H176.153V34.5H170.189ZM173.129 7.704C171.981 7.704 171.085 7.424 170.441 6.864C169.797 6.304 169.475 5.506 169.475 4.47C169.475 3.518 169.797 2.748 170.441 2.16C171.113 1.544 172.023 1.236 173.171 1.236C174.291 1.236 175.173 1.53 175.817 2.118C176.461 2.678 176.783 3.462 176.783 4.47C176.783 5.45 176.461 6.234 175.817 6.822C175.173 7.41 174.277 7.704 173.129 7.704ZM183.908 34.962C182.844 34.962 182.018 34.654 181.43 34.038C180.842 33.422 180.548 32.54 180.548 31.392C180.548 30.328 180.856 29.46 181.472 28.788C182.088 28.116 182.9 27.78 183.908 27.78C185 27.78 185.84 28.102 186.428 28.746C187.016 29.362 187.31 30.244 187.31 31.392C187.31 32.456 186.988 33.324 186.344 33.996C185.728 34.64 184.916 34.962 183.908 34.962ZM203.567 34.5V20.598C203.567 19.422 203.203 18.526 202.475 17.91C201.775 17.266 200.823 16.944 199.619 16.944C198.471 16.944 197.449 17.168 196.553 17.616C195.657 18.064 194.817 18.764 194.033 19.716L190.379 16.188C191.723 14.788 193.221 13.71 194.873 12.954C196.553 12.198 198.373 11.82 200.333 11.82C202.125 11.82 203.679 12.1 204.995 12.66C206.339 13.22 207.375 14.06 208.103 15.18C208.831 16.3 209.195 17.714 209.195 19.422V34.5H203.567ZM197.477 34.92C196.077 34.92 194.803 34.64 193.655 34.08C192.535 33.52 191.639 32.75 190.967 31.77C190.323 30.762 190.001 29.586 190.001 28.242C190.001 27.094 190.211 26.086 190.631 25.218C191.051 24.322 191.667 23.594 192.479 23.034C193.319 22.446 194.355 21.998 195.587 21.69C196.847 21.382 198.303 21.228 199.955 21.228H206.507L206.129 25.218H199.871C199.199 25.218 198.597 25.274 198.065 25.386C197.561 25.498 197.127 25.68 196.763 25.932C196.427 26.184 196.161 26.478 195.965 26.814C195.797 27.15 195.713 27.542 195.713 27.99C195.713 28.466 195.839 28.886 196.091 29.25C196.343 29.614 196.679 29.894 197.099 30.09C197.547 30.286 198.051 30.384 198.611 30.384C199.423 30.384 200.193 30.244 200.921 29.964C201.677 29.684 202.349 29.292 202.937 28.788C203.525 28.284 203.987 27.71 204.323 27.066L205.457 30.048C204.869 31 204.155 31.84 203.315 32.568C202.475 33.296 201.565 33.87 200.585 34.29C199.605 34.71 198.569 34.92 197.477 34.92ZM214.222 34.5V12.282H220.186V34.5H214.222ZM217.162 7.704C216.014 7.704 215.118 7.424 214.474 6.864C213.83 6.304 213.508 5.506 213.508 4.47C213.508 3.518 213.83 2.748 214.474 2.16C215.146 1.544 216.056 1.236 217.204 1.236C218.324 1.236 219.206 1.53 219.85 2.118C220.494 2.678 220.816 3.462 220.816 4.47C220.816 5.45 220.494 6.234 219.85 6.822C219.206 7.41 218.31 7.704 217.162 7.704Z" fill="#1A202C"/>
</svg>
