<svg width="217" height="145" viewBox="0 0 217 145" fill="none" xmlns="http://www.w3.org/2000/svg">
<mask id="mask0_1_15824" style="mask-type:alpha" maskUnits="userSpaceOnUse" x="0" y="-127" width="272" height="272">
<circle cx="136" cy="9" r="136" fill="#D9D9D9"/>
</mask>
<g mask="url(#mask0_1_15824)">
<line x1="5" y1="4.37114e-08" x2="4.99999" y2="145" stroke="#F2F6FF" stroke-width="2"/>
<line x1="17" y1="4.37114e-08" x2="17" y2="145" stroke="#F2F6FF" stroke-width="2"/>
<line x1="29" y1="4.37114e-08" x2="29" y2="145" stroke="#F2F6FF" stroke-width="2"/>
<line x1="41" y1="4.37114e-08" x2="41" y2="145" stroke="#F2F6FF" stroke-width="2"/>
<line x1="53" y1="4.37114e-08" x2="53" y2="145" stroke="#F2F6FF" stroke-width="2"/>
<line x1="65.0001" y1="4.37114e-08" x2="65.0001" y2="145" stroke="#F2F6FF" stroke-width="2"/>
<line x1="77.0001" y1="4.37114e-08" x2="77.0001" y2="145" stroke="#F2F6FF" stroke-width="2"/>
<line x1="89.0001" y1="4.37114e-08" x2="89.0001" y2="145" stroke="#F2F6FF" stroke-width="2"/>
<line x1="101" y1="4.37114e-08" x2="101" y2="145" stroke="#F2F6FF" stroke-width="2"/>
<line x1="113" y1="4.37114e-08" x2="113" y2="145" stroke="#F2F6FF" stroke-width="2"/>
<line x1="125" y1="4.37114e-08" x2="125" y2="145" stroke="#F2F6FF" stroke-width="2"/>
<line x1="137" y1="4.37114e-08" x2="137" y2="145" stroke="#F2F6FF" stroke-width="2"/>
<line x1="149" y1="4.37114e-08" x2="149" y2="145" stroke="#F2F6FF" stroke-width="2"/>
<line x1="161" y1="4.37114e-08" x2="161" y2="145" stroke="#F2F6FF" stroke-width="2"/>
<line x1="173" y1="4.37114e-08" x2="173" y2="145" stroke="#F2F6FF" stroke-width="2"/>
<line x1="185" y1="4.37114e-08" x2="185" y2="145" stroke="#F2F6FF" stroke-width="2"/>
<line x1="197" y1="4.37114e-08" x2="197" y2="145" stroke="#F2F6FF" stroke-width="2"/>
<line x1="209" y1="4.37114e-08" x2="209" y2="145" stroke="#F2F6FF" stroke-width="2"/>
</g>
</svg>
