<svg width="207" height="145" viewBox="0 0 207 145" fill="none" xmlns="http://www.w3.org/2000/svg">
<mask id="mask0_1_15893" style="mask-type:alpha" maskUnits="userSpaceOnUse" x="-65" y="0" width="272" height="272">
<circle cx="71" cy="136" r="136" transform="rotate(180 71 136)" fill="#D9D9D9"/>
</mask>
<g mask="url(#mask0_1_15893)">
<line x1="202" y1="145" x2="202" y2="-4.37114e-08" stroke="#8ECEFF" stroke-width="2"/>
<line x1="190" y1="145" x2="190" y2="-4.37114e-08" stroke="#8ECEFF" stroke-width="2"/>
<line x1="178" y1="145" x2="178" y2="-4.37114e-08" stroke="#8ECEFF" stroke-width="2"/>
<line x1="166" y1="145" x2="166" y2="-4.37114e-08" stroke="#8ECEFF" stroke-width="2"/>
<line x1="154" y1="145" x2="154" y2="-4.37114e-08" stroke="#8ECEFF" stroke-width="2"/>
<line x1="142" y1="145" x2="142" y2="-4.37114e-08" stroke="#8ECEFF" stroke-width="2"/>
<line x1="130" y1="145" x2="130" y2="-4.37114e-08" stroke="#8ECEFF" stroke-width="2"/>
<line x1="118" y1="145" x2="118" y2="-4.37114e-08" stroke="#8ECEFF" stroke-width="2"/>
<line x1="106" y1="145" x2="106" y2="-4.37114e-08" stroke="#8ECEFF" stroke-width="2"/>
<line x1="93.9999" y1="145" x2="93.9999" y2="-4.37114e-08" stroke="#8ECEFF" stroke-width="2"/>
<line x1="81.9999" y1="145" x2="81.9999" y2="-4.37114e-08" stroke="#8ECEFF" stroke-width="2"/>
<line x1="69.9999" y1="145" x2="69.9999" y2="-4.37114e-08" stroke="#8ECEFF" stroke-width="2"/>
<line x1="57.9999" y1="145" x2="57.9999" y2="-4.37114e-08" stroke="#8ECEFF" stroke-width="2"/>
<line x1="45.9999" y1="145" x2="45.9999" y2="-4.37114e-08" stroke="#8ECEFF" stroke-width="2"/>
<line x1="33.9999" y1="145" x2="33.9999" y2="-4.37114e-08" stroke="#8ECEFF" stroke-width="2"/>
<line x1="21.9999" y1="145" x2="21.9999" y2="-4.37114e-08" stroke="#8ECEFF" stroke-width="2"/>
<line x1="9.99988" y1="145" x2="9.99988" y2="-4.37114e-08" stroke="#8ECEFF" stroke-width="2"/>
</g>
</svg>
